<svg width="10" height="18" viewBox="0 0 10 18" fill="none" xmlns="http://www.w3.org/2000/svg">
<g id="Frame" clip-path="url(#clip0_136_894)">
<g id="Group">
<path id="Vector (Stroke)" fill-rule="evenodd" clip-rule="evenodd" d="M9.25149 1.38523L1.85149 8.78523C1.82893 8.80779 1.82061 8.82384 1.81796 8.82992C1.81732 8.83139 1.8169 8.83252 1.81662 8.83336C1.8169 8.83419 1.81732 8.83533 1.81796 8.83679C1.82061 8.84287 1.82893 8.85892 1.85149 8.88148L1.85381 8.8838L9.25381 16.3505L8.21208 17.3829L0.814398 9.91857C0.813971 9.91814 0.813546 9.91772 0.81312 9.91729C0.523011 9.62657 0.349609 9.2453 0.349609 8.83336C0.349609 8.42081 0.523521 8.03902 0.814398 7.74814L8.2144 0.348145L9.25149 1.38523Z" fill="#343A40"/>
</g>
</g>
<defs>
<clipPath id="clip0_136_894">
<rect width="8.93333" height="17.0667" fill="white" transform="translate(0.333984 0.333374)"/>
</clipPath>
</defs>
</svg>
