<svg width="138" height="36" viewBox="0 0 138 36" fill="none" xmlns="http://www.w3.org/2000/svg">
<path d="M114.523 35.0399L121.387 9.31193H128.683L127.291 14.4959C128.603 12.5759 130.027 11.1199 131.563 10.1279C133.131 9.10393 134.971 8.67193 137.083 8.83193L135.019 16.4639H134.635C132.203 16.4639 130.091 17.1999 128.299 18.6719C126.507 20.1439 125.163 22.5599 124.267 25.9199L121.819 35.0399H114.523Z" fill="black"/>
<path d="M95.3035 24.72C95.4315 26.256 95.9595 27.488 96.8875 28.416C97.8155 29.312 99.2395 29.76 101.159 29.76C102.119 29.76 103.047 29.6 103.943 29.28C104.839 28.96 105.815 28.432 106.871 27.696L110.231 32.208C109.079 33.168 107.687 33.984 106.055 34.656C104.455 35.296 102.551 35.616 100.343 35.616C98.4875 35.616 96.8234 35.36 95.3514 34.848C93.8794 34.304 92.6315 33.552 91.6075 32.592C90.5835 31.6 89.7994 30.4 89.2554 28.992C88.7114 27.584 88.4395 25.984 88.4395 24.192C88.4395 22.336 88.7915 20.496 89.4955 18.672C90.2315 16.816 91.2714 15.168 92.6154 13.728C93.9594 12.256 95.5595 11.072 97.4155 10.176C99.3035 9.27997 101.399 8.83197 103.703 8.83197C105.367 8.83197 106.855 9.08797 108.167 9.59997C109.479 10.112 110.583 10.816 111.479 11.712C112.375 12.608 113.047 13.664 113.495 14.88C113.975 16.096 114.215 17.424 114.215 18.864C114.215 19.792 114.103 20.752 113.879 21.744C113.655 22.736 113.335 23.728 112.919 24.72H95.3035ZM95.9275 20.16H107.111C107.271 19.616 107.351 19.056 107.351 18.48C107.351 17.424 107.015 16.528 106.343 15.792C105.703 15.056 104.631 14.688 103.127 14.688C101.463 14.688 99.9914 15.2 98.7114 16.224C97.4634 17.216 96.5355 18.528 95.9275 20.16Z" fill="black"/>
<path d="M61.0721 35.472C58.8641 35.472 57.2161 34.992 56.1281 34.032C55.0401 33.072 54.4961 31.872 54.4961 30.432C54.4961 29.888 54.5281 29.36 54.5921 28.848C54.6881 28.336 54.8161 27.792 54.9761 27.216L58.0961 15.552H55.0241L56.7041 9.31196H59.7761L61.5521 2.73596H68.8481L67.0721 9.31196H73.1201L71.4401 15.552H65.3921L62.5121 26.352C62.4481 26.544 62.4001 26.752 62.3681 26.976C62.3361 27.168 62.3201 27.344 62.3201 27.504C62.3201 28.528 62.9761 29.04 64.2881 29.04C64.8641 29.04 65.4721 28.976 66.1121 28.848C66.7841 28.688 67.4241 28.48 68.0321 28.224L66.3521 34.416C64.8481 35.12 63.0881 35.472 61.0721 35.472Z" fill="black"/>
<path d="M39.2321 35.616C38.2721 35.616 37.2641 35.52 36.2081 35.328C35.1521 35.136 34.1121 34.848 33.0881 34.464C32.0961 34.08 31.1361 33.6 30.2081 33.024C29.2801 32.448 28.4321 31.76 27.6641 30.96L31.8881 26.592C33.2321 27.936 34.5921 28.848 35.9681 29.328C37.3441 29.808 38.6081 30.048 39.7601 30.048C40.7201 30.048 41.4721 29.856 42.0161 29.472C42.5601 29.088 42.8321 28.528 42.8321 27.792C42.8321 27.312 42.5601 26.896 42.0161 26.544C41.4721 26.16 40.7521 25.776 39.8561 25.392C38.8321 24.976 37.8721 24.544 36.9761 24.096C36.0801 23.616 35.2801 23.088 34.5761 22.512C33.9041 21.936 33.3601 21.28 32.9441 20.544C32.5601 19.776 32.3681 18.88 32.3681 17.856C32.3681 16.576 32.6081 15.392 33.0881 14.304C33.5681 13.184 34.2401 12.224 35.1041 11.424C36.0001 10.624 37.0881 9.99997 38.3681 9.55197C39.6481 9.07197 41.0881 8.83197 42.6881 8.83197C43.7441 8.83197 44.7521 8.94397 45.7121 9.16797C46.7041 9.35997 47.6321 9.63197 48.4961 9.98397C49.3921 10.336 50.1921 10.736 50.8961 11.184C51.6321 11.6 52.2721 12.048 52.8161 12.528L48.8801 17.136C47.6321 16.144 46.4641 15.44 45.3761 15.024C44.2881 14.608 43.2161 14.4 42.1601 14.4C41.2641 14.4 40.5601 14.592 40.0481 14.976C39.5681 15.36 39.3281 15.888 39.3281 16.56C39.3281 17.072 39.6161 17.536 40.1921 17.952C40.8001 18.336 41.6481 18.768 42.7361 19.248C43.5681 19.632 44.4001 20.032 45.2321 20.448C46.0961 20.864 46.8641 21.36 47.5361 21.936C48.2081 22.512 48.7521 23.184 49.1681 23.952C49.5841 24.688 49.7921 25.552 49.7921 26.544C49.7921 27.952 49.5201 29.216 48.9761 30.336C48.4641 31.456 47.7441 32.416 46.8161 33.216C45.8881 33.984 44.7681 34.576 43.4561 34.992C42.1761 35.408 40.7681 35.616 39.2321 35.616Z" fill="black"/>
<path d="M22.9235 6.48L24.6995 0H32.3795L30.6035 6.48H22.9235ZM15.4355 35.04L22.3475 9.312H29.6435L22.7315 35.04H15.4355Z" fill="black"/>
<path d="M0 35.04L6.96 9.02395L0.864 10.416L0.768 4.12795L11.328 1.19995H16.368L7.296 35.04H0Z" fill="black"/>
<path d="M74.4453 35.0799L81.3573 9.35193H87.6533L80.7413 35.0799H74.4453Z" fill="#5BFF7F"/>
<path d="M82.2155 0.039978L80.4395 6.51998H88.1195L89.8955 0.039978H82.2155Z" fill="#5BFF7F"/>
<g clip-path="url(#clip0_620_5)">
<path d="M71.4395 35.0799L78.3515 9.35193H85.6475L78.7355 35.0799H71.4395Z" fill="#5BFF7F"/>
</g>
<defs>
<clipPath id="clip0_620_5">
<rect width="10" height="7" fill="white" transform="translate(72.4395 9.07996)"/>
</clipPath>
</defs>
</svg>
